<svg width="512" height="512" viewBox="0 0 512 512" fill="none" xmlns="http://www.w3.org/2000/svg">
  <defs>
    <linearGradient id="bg" x1="96" y1="64" x2="416" y2="448" gradientUnits="userSpaceOnUse">
      <stop stop-color="#1E293B" />
      <stop offset="1" stop-color="#0F172A" />
    </linearGradient>
    <radialGradient id="glow" cx="0" cy="0" r="1" gradientUnits="userSpaceOnUse" gradientTransform="translate(176 140) rotate(45) scale(244)">
      <stop stop-color="#BFDBFE" stop-opacity="0.42" />
      <stop offset="1" stop-color="#BFDBFE" stop-opacity="0" />
    </radialGradient>
    <filter id="shadow" x="96" y="104" width="320" height="312" filterUnits="userSpaceOnUse" color-interpolation-filters="sRGB">
      <feFlood flood-opacity="0" result="BackgroundImageFix" />
      <feColorMatrix in="SourceAlpha" type="matrix" values="0 0 0 0 0 0 0 0 0 0 0 0 0 0 0 0 0 0 127 0" result="hardAlpha" />
      <feOffset dy="16" />
      <feGaussianBlur stdDeviation="16" />
      <feColorMatrix type="matrix" values="0 0 0 0 0.0588235 0 0 0 0 0.0901961 0 0 0 0 0.164706 0 0 0 0.22 0" />
      <feBlend mode="normal" in2="BackgroundImageFix" result="effect1_dropShadow_1_1" />
      <feBlend mode="normal" in="SourceGraphic" in2="effect1_dropShadow_1_1" result="shape" />
    </filter>
  </defs>

  <rect x="36" y="36" width="440" height="440" rx="120" fill="url(#bg)" />
  <rect x="36" y="36" width="440" height="440" rx="120" fill="url(#glow)" />

  <circle cx="372" cy="150" r="44" fill="#38BDF8" fill-opacity="0.16" />

  <g filter="url(#shadow)">
    <path
      d="M146 164C146 141.909 163.909 124 186 124H326C348.091 124 366 141.909 366 164V271C366 293.091 348.091 311 326 311H249.106C240.884 311 232.929 313.839 226.573 319.039L188.006 350.588C179.561 357.498 167 351.49 167 340.581V319.5C167 314.806 163.194 311 158.5 311C151.596 311 146 305.404 146 298.5V164Z"
      fill="#F8FAFC"
    />
  </g>

  <path
    d="M228 201C228 182.775 242.775 168 261 168H267C293.51 168 315 189.49 315 216C315 234.391 305.569 246.727 286.709 258.31C275.131 265.421 269 272.353 269 284"
    stroke="#0F172A"
    stroke-width="28"
    stroke-linecap="round"
    stroke-linejoin="round"
  />
  <circle cx="269" cy="330" r="16" fill="#0F172A" />

  <path
    d="M360 154L368.727 177.273L392 186L368.727 194.727L360 218L351.273 194.727L328 186L351.273 177.273L360 154Z"
    fill="#67E8F9"
  />
</svg>
